<?xml version="1.0" encoding="UTF-8" standalone="no" ?>
<!DOCTYPE svg PUBLIC "-//W3C//DTD SVG 1.1//EN" "http://www.w3.org/Graphics/SVG/1.1/DTD/svg11.dtd">
<svg xmlns="http://www.w3.org/2000/svg" xmlns:xlink="http://www.w3.org/1999/xlink" version="1.1" width="1080" height="1080" viewBox="0 0 1080 1080" xml:space="preserve">
<g transform="matrix(1 0 0 1 540 540)" id="e3921cb3-153e-4095-96ba-d5e95368de9d"  >
<rect style="stroke: none; stroke-width: 1; stroke-dasharray: none; stroke-linecap: butt; stroke-dashoffset: 0; stroke-linejoin: miter; stroke-miterlimit: 4; fill: rgb(255,255,255); fill-rule: nonzero; opacity: 1; visibility: hidden;" vector-effect="non-scaling-stroke"  x="-540" y="-540" rx="0" ry="0" width="1080" height="1080" />
</g>
<g transform="matrix(1 0 0 1 540 540)" id="6d9be53b-cfbd-41c3-9a20-2e72c8d0928a"  >
</g>
<g transform="matrix(1 0 0 1 540 540)"  >
<g style="" vector-effect="non-scaling-stroke"   >
		<g transform="matrix(1 0 0 1 0 41.7)"  >
<path style="stroke: none; stroke-width: 1; stroke-dasharray: none; stroke-linecap: butt; stroke-dashoffset: 0; stroke-linejoin: miter; stroke-miterlimit: 4; fill: rgb(180,183,189); fill-rule: nonzero; opacity: 1;" vector-effect="non-scaling-stroke"  transform=" translate(-500.05, -541.7)" d="M 10 404.2 C 116.6 404.2 222.5 404.2 329.4 404.2 C 329.4 399.8 329.4 396.4 329.4 393 C 329.4 350.9 329.29999999999995 308.7 329.59999999999997 266.5 C 329.59999999999997 262.6 331.29999999999995 257.5 334.09999999999997 254.9 C 389.49999999999994 201.9 445.09999999999997 149.2 500.59999999999997 96.4 C 501.99999999999994 95.10000000000001 503.49999999999994 94 505.29999999999995 92.5 C 507.19999999999993 94 508.99999999999994 95.2 510.59999999999997 96.7 C 565.5999999999999 148.6 620.5999999999999 200.7 675.8 252.5 C 680.5999999999999 257 682.6999999999999 261.5 682.5999999999999 268.2 C 682.3 309.7 682.3999999999999 351.2 682.3999999999999 392.7 C 682.3999999999999 396.09999999999997 682.3999999999999 399.59999999999997 682.3999999999999 404.7 C 785.3999999999999 404.7 887.3999999999999 404.7 990.0999999999999 404.7 C 990.0999999999999 544.4 990.0999999999999 853 990.0999999999999 990.9000000000001 C 848.0999999999999 990.9000000000001 706.4999999999999 990.9000000000001 563.8 990.9000000000001 C 563.8 930.9000000000001 563.8 872.0000000000001 563.8 812.5000000000001 C 524.6999999999999 812.5000000000001 486.59999999999997 812.5000000000001 447.59999999999997 812.5000000000001 C 447.59999999999997 871.6000000000001 447.59999999999997 930.0000000000001 447.59999999999997 989.4000000000001 C 301.4 989.4000000000001 155.99999999999994 989.7 10.099999999999966 989.7 C 10 851.9 10 543.6 10 404.2 z M 507.2 375.1 C 555.6 374.90000000000003 595.4 335.20000000000005 595.8 286.8 C 596.0999999999999 238.5 555.8 197.4 507.09999999999997 197.8 C 457.7 198.10000000000002 418.29999999999995 235.70000000000002 418.29999999999995 286.5 C 418.3 338.3 459.3 374.9 507.2 375.1 z M 930 692.2 C 930 666.4000000000001 930 641.8000000000001 930 617.4000000000001 C 904.1 617.4000000000001 879 617.4000000000001 854.1 617.4000000000001 C 854.1 642.8000000000001 854.1 667.4000000000001 854.1 692.2 C 879.8 692.2 904.6 692.2 930 692.2 z M 814 692.3 C 814 666.5 814 641.6999999999999 814 617.4 C 788 617.4 763.3 617.4 738.5 617.4 C 738.5 642.6999999999999 738.5 667.4 738.5 692.3 C 764.1 692.3 788.9 692.3 814 692.3 z M 704.5 692.1 C 704.5 666.9 704.5 642.2 704.5 617.4 C 678.9 617.4 653.9 617.4 629 617.4 C 629 642.8 629 667.4 629 692.1 C 654.6 692.1 679.4 692.1 704.5 692.1 z M 299.8 579.5 C 325.8 579.5 351.1 579.5 376.20000000000005 579.5 C 376.20000000000005 554.3 376.20000000000005 530 376.20000000000005 505.7 C 350.40000000000003 505.7 325.30000000000007 505.7 299.80000000000007 505.7 C 299.8 530.5 299.8 554.6 299.8 579.5 z M 71.7 687.1 C 97.80000000000001 687.1 122.9 687.1 148.3 687.1 C 148.3 662.1 148.3 637.8000000000001 148.3 613.3000000000001 C 122.4 613.3000000000001 97.20000000000002 613.3000000000001 71.70000000000002 613.3000000000001 C 71.7 638.1 71.7 662.2 71.7 687.1 z M 75 505.5 C 75 530.8 75 555.1 75 579.6 C 100.6 579.6 125.6 579.6 150.7 579.6 C 150.7 554.6 150.7 530.2 150.7 505.5 C 125.3 505.5 100.6 505.5 75 505.5 z M 184.4 579.7 C 210.3 579.7 235.3 579.7 260.6 579.7 C 260.6 554.7 260.6 530.3000000000001 260.6 505.70000000000005 C 234.90000000000003 505.70000000000005 209.8 505.70000000000005 184.40000000000003 505.70000000000005 C 184.4 530.5 184.4 554.6 184.4 579.7 z M 707.3 505.9 C 681.0999999999999 505.9 656.0999999999999 505.9 631.0999999999999 505.9 C 631.0999999999999 531 631.0999999999999 555.4 631.0999999999999 579.6999999999999 C 656.8999999999999 579.6999999999999 681.8999999999999 579.6999999999999 707.3 579.6999999999999 C 707.3 554.7 707.3 530.6 707.3 505.9 z M 817.4 580 C 817.4 554.6 817.4 530.2 817.4 505.9 C 791.6999999999999 505.9 766.6 505.9 741.6 505.9 C 741.6 530.9 741.6 555.3 741.6 580 C 767.1 580 791.9 580 817.4 580 z M 856.5 579.6 C 882.5 579.6 907.5 579.6 932.4 579.6 C 932.4 554.5 932.4 530.1 932.4 505.8 C 906.6999999999999 505.8 881.6999999999999 505.8 856.5 505.8 C 856.5 530.7 856.5 554.8 856.5 579.6 z M 258 687.3 C 258 661.8 258 637.4 258 613.3 C 232.3 613.3 207.3 613.3 182.5 613.3 C 182.5 638.4 182.5 662.8 182.5 687.3 C 207.9 687.3 232.7 687.3 258 687.3 z M 373.1 687.3 C 373.1 661.8 373.1 637.5 373.1 613.3 C 347.3 613.3 322.3 613.3 297.5 613.3 C 297.5 638.4 297.5 662.8 297.5 687.3 C 323 687.3 347.8 687.3 373.1 687.3 z" stroke-linecap="round" />
</g>
		<g transform="matrix(1 0 0 1 2.45 -359.85)"  >
<path style="stroke: none; stroke-width: 1; stroke-dasharray: none; stroke-linecap: butt; stroke-dashoffset: 0; stroke-linejoin: miter; stroke-miterlimit: 4; fill: rgb(180,183,189); fill-rule: nonzero; opacity: 1;" vector-effect="non-scaling-stroke"  transform=" translate(-502.5, -140.15)" d="M 510.2 66.1 C 437.1 136 366.7 203.2 295.5 271.2 C 285.6 260.8 276 250.79999999999998 266.2 240.39999999999998 C 347.2 162.99999999999997 427.6 86.29999999999998 508.5 9.099999999999966 C 585.5 87.49999999999997 662.3 165.69999999999996 738.8 243.59999999999997 C 731.5999999999999 250.69999999999996 721.9 260.2 711.4 270.49999999999994 C 645.2 203.2 578 135 510.2 66.1 z" stroke-linecap="round" />
</g>
		<g transform="matrix(1 0 0 1 6.81 -213.62)"  >
<path style="stroke: none; stroke-width: 1; stroke-dasharray: none; stroke-linecap: butt; stroke-dashoffset: 0; stroke-linejoin: miter; stroke-miterlimit: 4; fill: rgb(180,183,189); fill-rule: nonzero; opacity: 1;" vector-effect="non-scaling-stroke"  transform=" translate(-506.86, -286.38)" d="M 541.5 351 C 539.7 347.8 538.1 345 536.5 342.2 C 535.8 342.59999999999997 535.2 342.9 534.5 343.3 C 535.7 346.40000000000003 536.9 349.5 538.1 352.5 C 505.70000000000005 370.9 460.90000000000003 356.1 441.8 320.7 C 422.1 284 436.7 239.39999999999998 474.90000000000003 219.89999999999998 C 510.90000000000003 201.49999999999997 555.9000000000001 217.79999999999998 574.1 255.7 C 590.5 290.1 575 335.6 541.5 351 z M 511.1 284.4 C 511.1 268.9 511.20000000000005 254.99999999999997 511 240.99999999999997 C 511 238.39999999999998 509.6 235.79999999999998 508.8 233.19999999999996 C 508 233.39999999999995 507.3 233.69999999999996 506.5 233.89999999999995 C 506.5 252.79999999999995 506.5 271.69999999999993 506.5 290.99999999999994 C 517.7 290.99999999999994 528.2 291.19999999999993 538.7 290.79999999999995 C 540.9000000000001 290.69999999999993 542.9000000000001 288.59999999999997 545.1 287.4 C 542.8000000000001 286.4 540.5 284.59999999999997 538.1 284.5 C 529.7 284.2 521.1 284.4 511.1 284.4 z" stroke-linecap="round" />
</g>
</g>
</g>
<g transform="matrix(NaN NaN NaN NaN 0 0)"  >
<g style=""   >
</g>
</g>
<g transform="matrix(NaN NaN NaN NaN 0 0)"  >
<g style=""   >
</g>
</g>
</svg>